<svg width="25" height="24" viewBox="0 0 25 24" fill="none" xmlns="http://www.w3.org/2000/svg">
<path d="M8.66675 16H15.9299C20.4175 16 21.1 13.1808 21.9277 9.06908C22.1665 7.88311 22.2859 7.29013 21.9988 6.89507C21.7117 6.5 21.1614 6.5 20.0608 6.5H6.66675" stroke="#757575" stroke-width="1.5" stroke-linecap="round"/>
<path d="M8.66675 16L6.04548 3.51493C5.8229 2.62459 5.02293 2 4.1052 2H3.16675" stroke="#757575" stroke-width="1.5" stroke-linecap="round"/>
<path d="M9.54675 16H9.13532C7.77197 16 6.66675 17.1513 6.66675 18.5714C6.66675 18.8081 6.85095 19 7.07818 19H18.1667" stroke="#757575" stroke-width="1.5" stroke-linecap="round" stroke-linejoin="round"/>
<path d="M11.1667 22C11.9952 22 12.6667 21.3284 12.6667 20.5C12.6667 19.6716 11.9952 19 11.1667 19C10.3383 19 9.66675 19.6716 9.66675 20.5C9.66675 21.3284 10.3383 22 11.1667 22Z" stroke="#757575" stroke-width="1.5"/>
<path d="M18.1667 22C18.9952 22 19.6667 21.3284 19.6667 20.5C19.6667 19.6716 18.9952 19 18.1667 19C17.3383 19 16.6667 19.6716 16.6667 20.5C16.6667 21.3284 17.3383 22 18.1667 22Z" stroke="#757575" stroke-width="1.5"/>
</svg>
