<svg width="36" height="36" viewBox="0 0 36 36" fill="none" xmlns="http://www.w3.org/2000/svg">
<rect x="1.375" y="1.375" width="33.25" height="33.25" rx="16.625" stroke="#E0E0E0" stroke-width="1.25"/>
<path d="M14.928 23C14.8347 23 14.7553 22.9673 14.69 22.902C14.6247 22.8367 14.592 22.7573 14.592 22.664V13.536C14.592 13.4427 14.6247 13.3633 14.69 13.298C14.7553 13.2327 14.8347 13.2 14.928 13.2H16.23C16.3233 13.2 16.4027 13.2327 16.468 13.298C16.5333 13.3633 16.566 13.4427 16.566 13.536V21.334H21.004C21.1067 21.334 21.1907 21.3667 21.256 21.432C21.3213 21.4973 21.354 21.5813 21.354 21.684V22.664C21.354 22.7573 21.3213 22.8367 21.256 22.902C21.1907 22.9673 21.1067 23 21.004 23H14.928Z" fill="#424242"/>
</svg>
