<svg width="36" height="36" viewBox="0 0 36 36" fill="none" xmlns="http://www.w3.org/2000/svg">
<rect x="1.375" y="1.375" width="33.25" height="33.25" rx="16.625" stroke="#E0E0E0" stroke-width="1.25"/>
<path d="M13.442 23C13.3393 23 13.2553 22.9673 13.19 22.902C13.1247 22.8367 13.092 22.7573 13.092 22.664V13.55C13.092 13.4473 13.1247 13.3633 13.19 13.298C13.2553 13.2327 13.3393 13.2 13.442 13.2H14.548C14.6787 13.2 14.7767 13.2373 14.842 13.312C14.9073 13.3773 14.9493 13.4287 14.968 13.466L17.67 18.506L20.4 13.466C20.4187 13.4287 20.4607 13.3773 20.526 13.312C20.5913 13.2373 20.6893 13.2 20.82 13.2H21.912C22.0147 13.2 22.0987 13.2327 22.164 13.298C22.2293 13.3633 22.262 13.4473 22.262 13.55V22.664C22.262 22.7573 22.2293 22.8367 22.164 22.902C22.0987 22.9673 22.0147 23 21.912 23H20.736C20.6333 23 20.5493 22.9673 20.484 22.902C20.428 22.8367 20.4 22.7573 20.4 22.664V16.602L18.44 20.34C18.3933 20.424 18.3327 20.4987 18.258 20.564C18.1833 20.62 18.0853 20.648 17.964 20.648H17.39C17.2593 20.648 17.1567 20.62 17.082 20.564C17.0167 20.4987 16.9607 20.424 16.914 20.34L14.954 16.602V22.664C14.954 22.7573 14.9213 22.8367 14.856 22.902C14.7907 22.9673 14.7113 23 14.618 23H13.442Z" fill="#424242"/>
</svg>
