<svg width="34" height="34" viewBox="0 0 34 34" fill="none" xmlns="http://www.w3.org/2000/svg">
<path d="M0 17C0 7.61116 7.61116 0 17 0C26.3888 0 34 7.61116 34 17C34 26.3888 26.3888 34 17 34C7.61116 34 0 26.3888 0 17Z" fill="#FAFAFA"/>
<path d="M0.5 17C0.5 7.8873 7.8873 0.5 17 0.5C26.1127 0.5 33.5 7.8873 33.5 17C33.5 26.1127 26.1127 33.5 17 33.5C7.8873 33.5 0.5 26.1127 0.5 17Z" stroke="#F5F5F5" stroke-opacity="0.5"/>
<path d="M9.89769 19.0772C9.7382 20.1227 10.4512 20.8484 11.3243 21.21C14.6714 22.5966 19.3291 22.5966 22.6762 21.21C23.5492 20.8484 24.2623 20.1227 24.1028 19.0772C24.0048 18.4347 23.5201 17.8996 23.161 17.3772C22.6907 16.6845 22.644 15.9288 22.6439 15.125C22.6439 12.0184 20.1172 9.5 17.0002 9.5C13.8833 9.5 11.3566 12.0184 11.3566 15.125C11.3565 15.9288 11.3098 16.6845 10.8395 17.3772C10.4804 17.8996 9.9957 18.4347 9.89769 19.0772Z" stroke="#616161" stroke-width="1.125" stroke-linecap="round" stroke-linejoin="round"/>
<path d="M13.9998 22.25C14.3436 23.5439 15.5564 24.5 16.9998 24.5C18.4431 24.5 19.6559 23.5439 19.9998 22.25" stroke="#616161" stroke-width="1.125" stroke-linecap="round" stroke-linejoin="round"/>
</svg>
