<svg width="34" height="34" viewBox="0 0 34 34" fill="none" xmlns="http://www.w3.org/2000/svg">
<path d="M0 17C0 7.61116 7.61116 0 17 0C26.3888 0 34 7.61116 34 17C34 26.3888 26.3888 34 17 34C7.61116 34 0 26.3888 0 17Z" fill="#FAFAFA"/>
<path d="M0.5 17C0.5 7.8873 7.8873 0.5 17 0.5C26.1127 0.5 33.5 7.8873 33.5 17C33.5 26.1127 26.1127 33.5 17 33.5C7.8873 33.5 0.5 26.1127 0.5 17Z" stroke="#F5F5F5" stroke-opacity="0.5"/>
<path d="M23.75 17C23.75 16.3787 23.2463 15.875 22.625 15.875C22.0037 15.875 21.5 16.3787 21.5 17C21.5 17.6213 22.0037 18.125 22.625 18.125C23.2463 18.125 23.75 17.6213 23.75 17Z" stroke="#616161" stroke-width="1.125"/>
<path d="M18.125 17C18.125 16.3787 17.6213 15.875 17 15.875C16.3787 15.875 15.875 16.3787 15.875 17C15.875 17.6213 16.3787 18.125 17 18.125C17.6213 18.125 18.125 17.6213 18.125 17Z" stroke="#616161" stroke-width="1.125"/>
<path d="M12.5 17C12.5 16.3787 11.9963 15.875 11.375 15.875C10.7537 15.875 10.25 16.3787 10.25 17C10.25 17.6213 10.7537 18.125 11.375 18.125C11.9963 18.125 12.5 17.6213 12.5 17Z" stroke="#616161" stroke-width="1.125"/>
</svg>
