<svg width="36" height="36" viewBox="0 0 36 36" fill="none" xmlns="http://www.w3.org/2000/svg">
<rect x="1.375" y="1.375" width="33.25" height="33.25" rx="16.625" stroke="#424242" stroke-width="1.25"/>
<path d="M17.994 23.14C17.126 23.14 16.398 23.014 15.81 22.762C15.2313 22.5007 14.788 22.1647 14.48 21.754C14.1813 21.334 14.0227 20.8953 14.004 20.438C14.004 20.354 14.032 20.284 14.088 20.228C14.144 20.172 14.214 20.144 14.298 20.144H15.544C15.6653 20.144 15.754 20.172 15.81 20.228C15.8753 20.2747 15.9313 20.3353 15.978 20.41C16.034 20.5873 16.1413 20.7647 16.3 20.942C16.4587 21.11 16.6733 21.25 16.944 21.362C17.224 21.474 17.574 21.53 17.994 21.53C18.666 21.53 19.1653 21.418 19.492 21.194C19.828 20.97 19.996 20.6667 19.996 20.284C19.996 20.0133 19.9073 19.7987 19.73 19.64C19.5527 19.472 19.2773 19.3227 18.904 19.192C18.54 19.052 18.0547 18.9073 17.448 18.758C16.748 18.59 16.16 18.3893 15.684 18.156C15.2173 17.9133 14.8627 17.61 14.62 17.246C14.3867 16.882 14.27 16.42 14.27 15.86C14.27 15.3187 14.4147 14.838 14.704 14.418C15.0027 13.998 15.4227 13.6667 15.964 13.424C16.5147 13.1813 17.168 13.06 17.924 13.06C18.5307 13.06 19.0673 13.144 19.534 13.312C20.0007 13.4707 20.388 13.6853 20.696 13.956C21.004 14.2173 21.2373 14.502 21.396 14.81C21.564 15.1087 21.6527 15.4027 21.662 15.692C21.662 15.7667 21.634 15.8367 21.578 15.902C21.5313 15.958 21.4613 15.986 21.368 15.986H20.066C19.9913 15.986 19.9167 15.9673 19.842 15.93C19.7673 15.8927 19.7067 15.8227 19.66 15.72C19.604 15.4307 19.422 15.1833 19.114 14.978C18.806 14.7727 18.4093 14.67 17.924 14.67C17.42 14.67 17.014 14.7633 16.706 14.95C16.398 15.1367 16.244 15.426 16.244 15.818C16.244 16.0793 16.3187 16.2987 16.468 16.476C16.6267 16.644 16.874 16.7933 17.21 16.924C17.5553 17.0547 18.008 17.1947 18.568 17.344C19.3613 17.5213 20.01 17.7267 20.514 17.96C21.018 18.1933 21.3867 18.492 21.62 18.856C21.8533 19.2107 21.97 19.6633 21.97 20.214C21.97 20.83 21.802 21.3573 21.466 21.796C21.1393 22.2253 20.6773 22.5567 20.08 22.79C19.4827 23.0233 18.7873 23.14 17.994 23.14Z" fill="#424242"/>
</svg>
