<svg width="36" height="36" viewBox="0 0 36 36" fill="none" xmlns="http://www.w3.org/2000/svg">
<rect x="1.375" y="1.375" width="33.25" height="33.25" rx="16.625" stroke="#E0E0E0" stroke-width="1.25"/>
<path d="M9.546 23C9.462 23 9.392 22.972 9.336 22.916C9.28 22.86 9.252 22.79 9.252 22.706C9.252 22.678 9.25667 22.65 9.266 22.622C9.27533 22.594 9.28467 22.566 9.294 22.538L12.43 18.002L9.49 13.662C9.462 13.606 9.448 13.55 9.448 13.494C9.448 13.41 9.476 13.34 9.532 13.284C9.588 13.228 9.65333 13.2 9.728 13.2H11.17C11.282 13.2 11.3707 13.228 11.436 13.284C11.5013 13.34 11.5573 13.4007 11.604 13.466L13.662 16.49L15.734 13.466C15.7713 13.4007 15.8227 13.34 15.888 13.284C15.9627 13.228 16.056 13.2 16.168 13.2H17.526C17.61 13.2 17.68 13.228 17.736 13.284C17.792 13.34 17.82 13.41 17.82 13.494C17.82 13.55 17.8013 13.606 17.764 13.662L14.838 18.002L17.974 22.538C17.9927 22.566 18.0067 22.594 18.016 22.622C18.0253 22.65 18.03 22.678 18.03 22.706C18.03 22.79 17.9973 22.86 17.932 22.916C17.876 22.972 17.8107 23 17.736 23H16.252C16.14 23 16.0513 22.972 15.986 22.916C15.9207 22.86 15.8693 22.804 15.832 22.748L13.592 19.584L11.394 22.748C11.3567 22.804 11.3053 22.86 11.24 22.916C11.1747 22.972 11.0813 23 10.96 23H9.546ZM19.8975 23C19.8042 23 19.7249 22.9673 19.6595 22.902C19.5942 22.8367 19.5615 22.7573 19.5615 22.664V13.536C19.5615 13.4427 19.5942 13.3633 19.6595 13.298C19.7249 13.2327 19.8042 13.2 19.8975 13.2H21.1995C21.2929 13.2 21.3722 13.2327 21.4375 13.298C21.5029 13.3633 21.5355 13.4427 21.5355 13.536V21.334H25.9735C26.0762 21.334 26.1602 21.3667 26.2255 21.432C26.2909 21.4973 26.3235 21.5813 26.3235 21.684V22.664C26.3235 22.7573 26.2909 22.8367 26.2255 22.902C26.1602 22.9673 26.0762 23 25.9735 23H19.8975Z" fill="#424242"/>
</svg>
